<svg width="735" height="206" viewBox="0 0 735 206" fill="none" xmlns="http://www.w3.org/2000/svg">
<path d="M163.588 2.71692C176.512 -7.19476 183.354 12.4995 177.821 21.9613C174.901 26.9553 170.668 31.7081 166.207 36.3429L162.353 40.2895C172.443 47.3641 181.054 56.2628 187.165 67.1799C206.855 102.351 197.383 150.387 170.469 178.826C141.068 209.894 101.137 214.216 65.8091 192.049C33.3091 171.66 10.7011 133.038 14.3179 93.245C3.3015 100.471 0.125356 90.7162 1.03164 81.9773L1.21984 80.5333C1.29475 80.0572 1.38161 79.5873 1.47978 79.1267L1.80759 77.7759L2.1994 76.4994C2.48108 75.6774 2.80285 74.9173 3.15955 74.2437C6.21476 68.4738 10.3449 62.8961 14.5428 57.5555L20.7645 49.728C37.5509 28.4246 57.3956 18.3304 84.5182 18.1787C101.416 18.0081 119.994 20.8225 137.098 27.2067C145.355 18.2336 154.25 9.85887 163.588 2.71692ZM102.232 42.5845L98.9551 42.2018L95.6876 41.8736C76.6656 40.1441 58.4286 41.8823 46.4824 59.0674C36.3232 73.6824 32.0058 92.8107 34.3138 110.577C38.7676 144.869 72.2612 184.883 107.832 186.91C147.358 189.167 178.14 148.986 178.414 111.232C178.604 85.292 165.666 68.2828 147.475 57.4628C143.122 63.4541 139.159 69.7633 135.302 76.1548L128.411 87.6975C121.513 99.2272 114.408 110.565 105.445 120.338C85.2372 142.373 67.6915 133.951 51.8721 112.131L50.5033 110.204L48.9549 107.927L47.9287 106.33L46.9327 104.681C46.7704 104.403 46.6103 104.123 46.4528 103.841L45.543 102.133L44.7178 100.398C41.6153 93.4142 41.0666 86.0042 49.3409 80.953C56.9443 76.3105 62.9958 79.7519 68.1029 85.476L69.4142 87.0172C69.6293 87.2814 69.8427 87.549 70.0545 87.8195L71.306 89.4731L72.5207 91.1731L74.317 93.8174L77.5008 98.6426C78.8676 100.685 80.1757 102.537 81.4478 103.983C89.2188 96.3848 95.2102 87.1152 100.897 77.5873L106.126 68.72C109.818 62.4674 113.574 56.2911 117.808 50.5876C118.822 49.2216 119.853 47.857 120.899 46.4957C114.769 44.799 108.479 43.5177 102.232 42.5845Z" fill="#191847"/>
<path d="M163.588 2.71692C176.512 -7.19476 183.354 12.4995 177.821 21.9613C174.901 26.9553 170.668 31.7081 166.207 36.3429L162.353 40.2895C172.443 47.3641 181.054 56.2628 187.165 67.1799C206.855 102.351 197.383 150.387 170.469 178.826C141.068 209.894 101.137 214.216 65.8091 192.049C33.3091 171.66 10.7011 133.038 14.3179 93.245C3.3015 100.471 0.125356 90.7162 1.03164 81.9773L1.21984 80.5333C1.29475 80.0572 1.38161 79.5873 1.47978 79.1267L1.80759 77.7759L2.1994 76.4994C2.48108 75.6774 2.80285 74.9173 3.15955 74.2437C6.21476 68.4738 10.3449 62.8961 14.5428 57.5555L20.7645 49.728C37.5509 28.4246 57.3956 18.3304 84.5182 18.1787C101.416 18.0081 119.994 20.8225 137.098 27.2067C145.355 18.2336 154.25 9.85887 163.588 2.71692ZM102.232 42.5845L98.9551 42.2018L95.6876 41.8736C76.6656 40.1441 58.4286 41.8823 46.4824 59.0674C36.3232 73.6824 32.0058 92.8107 34.3138 110.577C38.7676 144.869 72.2612 184.883 107.832 186.91C147.358 189.167 178.14 148.986 178.414 111.232C178.604 85.292 165.666 68.2828 147.475 57.4628C143.122 63.4541 139.159 69.7633 135.302 76.1548L128.411 87.6975C121.513 99.2272 114.408 110.565 105.445 120.338C85.2372 142.373 67.6915 133.951 51.8721 112.131L50.5033 110.204L48.9549 107.927L47.9287 106.33L46.9327 104.681C46.7704 104.403 46.6103 104.123 46.4528 103.841L45.543 102.133L44.7178 100.398C41.6153 93.4142 41.0666 86.0042 49.3409 80.953C56.9443 76.3105 62.9958 79.7519 68.1029 85.476L69.4142 87.0172C69.6293 87.2814 69.8427 87.549 70.0545 87.8195L71.306 89.4731L72.5207 91.1731L74.317 93.8174L77.5008 98.6426C78.8676 100.685 80.1757 102.537 81.4478 103.983C89.2188 96.3848 95.2102 87.1152 100.897 77.5873L106.126 68.72C109.818 62.4674 113.574 56.2911 117.808 50.5876C118.822 49.2216 119.853 47.857 120.899 46.4957C114.769 44.799 108.479 43.5177 102.232 42.5845Z" fill="#191847"/>
<path d="M283.894 81.5205V98.7488H232.66V81.5205H283.894ZM244.652 60.8014H267.342V141.594C267.342 143.997 267.698 145.855 268.411 147.168C269.162 148.482 270.175 149.383 271.452 149.871C272.765 150.359 274.229 150.603 275.843 150.603C277.044 150.603 278.189 150.509 279.277 150.321C280.404 150.134 281.248 149.965 281.811 149.815L285.471 166.987C284.307 167.399 282.656 167.831 280.516 168.282C278.414 168.769 275.843 169.07 272.803 169.182C267.285 169.37 262.387 168.601 258.108 166.874C253.867 165.11 250.545 162.389 248.143 158.71C245.778 155.032 244.614 150.415 244.652 144.86V60.8014ZM327.785 117.779V168H305.096V52.694H327.222V96.6094H328.18C330.169 91.5797 333.322 87.6198 337.638 84.7297C341.992 81.8395 347.453 80.3945 354.022 80.3945C360.028 80.3945 365.264 81.6894 369.73 84.2793C374.234 86.8316 377.725 90.5475 380.202 95.427C382.68 100.269 383.899 106.106 383.862 112.937V168H361.172V116.822C361.172 111.304 359.765 107.025 356.95 103.985C354.135 100.907 350.212 99.3681 345.183 99.3681C341.805 99.3681 338.802 100.1 336.174 101.564C333.547 102.99 331.501 105.092 330.037 107.87C328.574 110.61 327.823 113.913 327.785 117.779ZM406.584 168V81.5205H429.273V168H406.584ZM418.013 69.9786C414.56 69.9786 411.595 68.8338 409.117 66.5442C406.64 64.2171 405.401 61.4395 405.401 58.2115C405.401 54.9836 406.64 52.2248 409.117 49.9352C411.595 47.6081 414.541 46.4445 417.957 46.4445C421.447 46.4445 424.413 47.6081 426.852 49.9352C429.33 52.2248 430.568 54.9836 430.568 58.2115C430.568 61.4395 429.33 64.2171 426.852 66.5442C424.413 68.8338 421.466 69.9786 418.013 69.9786ZM475.022 117.779V168H452.333V81.5205H474.009V96.6094H474.966C476.918 91.6173 480.127 87.6761 484.594 84.786C489.06 81.8583 494.503 80.3945 500.921 80.3945C506.927 80.3945 512.163 81.7082 516.629 84.3356C521.096 86.9255 524.549 90.6414 526.989 95.4833C529.466 100.325 530.705 106.143 530.705 112.937V168H507.959V116.822C507.996 111.342 506.589 107.063 503.736 103.985C500.921 100.907 497.036 99.3681 492.082 99.3681C488.741 99.3681 485.776 100.1 483.186 101.564C480.634 102.99 478.644 105.092 477.218 107.87C475.792 110.61 475.06 113.913 475.022 117.779ZM591.81 202.231C584.228 202.231 577.716 201.199 572.274 199.135C566.831 197.07 562.477 194.274 559.212 190.746C555.984 187.218 553.844 183.277 552.793 178.923L573.625 175.432C574.338 177.158 575.445 178.791 576.947 180.33C578.448 181.907 580.456 183.183 582.971 184.159C585.486 185.135 588.601 185.622 592.317 185.622C597.722 185.622 602.189 184.309 605.717 181.681C609.245 179.054 611.009 174.7 611.009 168.619V152.63H610.052C608.964 154.919 607.387 157.153 605.323 159.33C603.258 161.469 600.575 163.252 597.272 164.678C594.006 166.067 590.009 166.761 585.279 166.761C578.748 166.761 572.799 165.241 567.432 162.201C562.102 159.123 557.86 154.469 554.707 148.238C551.555 141.97 549.978 134.069 549.978 124.535C549.978 114.851 551.573 106.744 554.764 100.213C557.954 93.6441 562.214 88.7083 567.544 85.4053C572.912 82.0647 578.823 80.3945 585.279 80.3945C590.196 80.3945 594.288 81.2202 597.553 82.8717C600.819 84.5232 603.446 86.5689 605.435 89.0086C607.425 91.4108 608.945 93.738 609.996 95.99H611.009V81.5205H633.53V169.07C633.53 176.426 631.728 182.563 628.125 187.48C624.559 192.397 619.642 196.076 613.374 198.516C607.106 200.993 599.918 202.231 591.81 202.231ZM592.204 149.477C596.221 149.477 599.636 148.482 602.451 146.493C605.266 144.503 607.406 141.651 608.87 137.935C610.371 134.181 611.122 129.677 611.122 124.422C611.122 119.243 610.39 114.72 608.926 110.854C607.462 106.988 605.323 103.985 602.508 101.845C599.693 99.706 596.258 98.6362 592.204 98.6362C588.038 98.6362 584.547 99.7435 581.732 101.958C578.917 104.173 576.778 107.232 575.314 111.135C573.888 115.001 573.174 119.43 573.174 124.422C573.174 129.527 573.906 133.956 575.37 137.71C576.834 141.426 578.973 144.316 581.789 146.38C584.604 148.445 588.076 149.477 592.204 149.477ZM727.051 105.561L706.276 107.138C705.863 105.261 705.018 103.553 703.742 102.014C702.504 100.438 700.852 99.1805 698.788 98.2421C696.723 97.2662 694.227 96.7783 691.299 96.7783C687.396 96.7783 684.112 97.604 681.447 99.2555C678.782 100.907 677.468 103.084 677.506 105.787C677.468 108.001 678.313 109.859 680.039 111.36C681.803 112.824 684.75 114.025 688.878 114.964L704.249 118.117C712.582 119.843 718.775 122.621 722.828 126.449C726.92 130.278 728.984 135.307 729.022 141.538C728.984 147.131 727.333 152.048 724.067 156.289C720.839 160.493 716.373 163.777 710.667 166.142C704.962 168.507 698.412 169.689 691.018 169.689C679.87 169.689 670.956 167.362 664.275 162.708C657.631 158.016 653.727 151.597 652.564 143.452L674.803 141.989C675.591 145.629 677.393 148.388 680.208 150.265C683.023 152.142 686.645 153.08 691.074 153.08C695.466 153.08 699.013 152.198 701.715 150.434C704.455 148.67 705.825 146.436 705.825 143.734C705.825 141.444 704.906 139.568 703.067 138.104C701.227 136.602 698.393 135.458 694.565 134.669L679.645 131.685C671.237 129.959 665.007 127.031 660.953 122.902C656.899 118.736 654.872 113.462 654.872 107.081C654.872 101.601 656.374 96.8721 659.376 92.8934C662.379 88.9148 666.583 85.837 671.988 83.6599C677.393 81.483 683.717 80.3945 690.962 80.3945C701.584 80.3945 709.954 82.6465 716.072 87.1507C722.228 91.6548 725.888 97.7917 727.051 105.561Z" fill="#191847"/>
</svg>
